<svg width="60" height="60" viewBox="0 0 60 60" fill="none" xmlns="http://www.w3.org/2000/svg">
<path d="M29.999 0C13.4312 0 0 13.4322 0 29.9994C0 46.5666 13.4312 60 29.999 60C46.5668 60 59.9996 46.5674 59.9996 29.9994C59.9996 13.4314 46.5668 0 29.999 0ZM29.9996 46.5902C27.8464 46.5902 26.0998 44.8452 26.0998 42.6904H33.8988C33.8992 44.8452 32.1528 46.5902 29.9996 46.5902ZM43.1776 38.78H43.1766C43.1766 40.222 42.008 40.3168 40.567 40.3168H19.4318C17.9902 40.3168 16.8226 40.2218 16.8226 38.7798V38.5314C16.8226 37.4944 17.4316 36.6064 18.3066 36.1852L19.135 29.0346C19.135 23.7998 22.837 19.4306 27.7654 18.3998V15.6238C27.7654 14.3898 28.766 13.3892 30.0006 13.3892C31.2346 13.3892 32.2352 14.3898 32.2352 15.6238V18.4C37.1636 19.4306 40.8656 23.7994 40.8656 29.0348L41.694 36.1864C42.569 36.6082 43.1776 37.4946 43.1776 38.5316V38.78Z" fill="#777777"/>
</svg>
