<svg width="42" height="42" viewBox="0 0 42 42" fill="none" xmlns="http://www.w3.org/2000/svg">
<path fill-rule="evenodd" clip-rule="evenodd" d="M0 21C0 9.40202 9.40202 0 21 0C32.5979 0 42 9.40202 42 21C42 32.5979 32.5979 42 21 42C9.40202 42 0 32.5979 0 21ZM17.2937 9.65135C17.233 8.55706 18.1039 7.63636 19.1999 7.63636H22.8001C23.8961 7.63636 24.767 8.55706 24.7063 9.65135L23.9639 23.015C23.9075 24.0267 23.0708 24.8182 22.0576 24.8182H19.9424C18.9292 24.8182 18.0925 24.0267 18.0361 23.015L17.2937 9.65135ZM24.8182 30.5455C24.8182 32.6542 23.1088 34.3636 21 34.3636C18.8912 34.3636 17.1818 32.6542 17.1818 30.5455C17.1818 28.4367 18.8912 26.7273 21 26.7273C23.1088 26.7273 24.8182 28.4367 24.8182 30.5455Z" fill="#D52D2D"/>
</svg>
