<svg width="22" height="24" viewBox="0 0 22 24" fill="none" xmlns="http://www.w3.org/2000/svg">
<path d="M11 7.3149C11.5879 7.3149 12.0645 6.82648 12.0645 6.22399C12.0645 5.62151 11.5879 5.13308 11 5.13308V7.3149ZM4.31045 18.6247C4.83526 18.8963 5.47553 18.6804 5.74055 18.1427C6.00557 17.6048 5.79498 16.9486 5.27019 16.6771L4.31045 18.6247ZM9.93548 6.22399C9.93548 6.82648 10.4121 7.3149 11 7.3149C11.5879 7.3149 12.0645 6.82648 12.0645 6.22399H9.93548ZM12.0645 1.09091C12.0645 0.488421 11.5879 0 11 0C10.4121 0 9.93548 0.488421 9.93548 1.09091H12.0645ZM10.9966 5.13308C10.4087 5.13503 9.93364 5.62503 9.93548 6.22751C9.93733 6.83 10.4155 7.31683 11.0034 7.3149L10.9966 5.13308ZM14.6516 7.79878C15.2196 7.95404 15.803 7.608 15.9545 7.02587C16.106 6.44372 15.7683 5.84593 15.2003 5.69065L14.6516 7.79878ZM3.26003 3.17328C2.9987 2.63357 2.35993 2.41316 1.83328 2.68096C1.30663 2.94877 1.09155 3.60337 1.35287 4.14308L3.26003 3.17328ZM3.39532 8.36125C3.65666 8.90093 4.29542 9.12144 4.82207 8.85352C5.34873 8.58573 5.5638 7.93116 5.30248 7.39145L3.39532 8.36125ZM4.00742 22.1699C3.60906 22.6131 3.63666 23.3031 4.06903 23.7114C4.50143 24.1197 5.17488 24.0913 5.57322 23.6483L4.00742 22.1699ZM9.22808 19.5828C9.62649 19.1396 9.59881 18.4496 9.16648 18.0413C8.734 17.633 8.06066 17.6614 7.66225 18.1044L9.22808 19.5828ZM21.7187 5.67999C22.1168 5.23675 22.089 4.54661 21.6565 4.13853C21.224 3.73044 20.5506 3.75893 20.1523 4.20218L21.7187 5.67999ZM17.2852 7.39345C16.8871 7.83669 16.9149 8.52683 17.3474 8.93497C17.7798 9.34297 18.4533 9.31446 18.8516 8.87126L17.2852 7.39345ZM7.66225 18.1044C7.2639 18.5476 7.29148 19.2376 7.72385 19.6459C8.15632 20.0542 8.82966 20.0259 9.22808 19.5828L7.66225 18.1044ZM11.8516 15.0545L12.6345 15.7937L12.6355 15.7926L11.8516 15.0545ZM18.8516 8.87126C19.2499 8.42806 19.222 7.73803 18.7896 7.32988C18.3571 6.92175 17.6835 6.95025 17.2852 7.39345L18.8516 8.87126ZM8.61974 17.7675C8.03979 17.6686 7.4915 18.0704 7.39507 18.6647C7.29862 19.259 7.69063 19.8209 8.27058 19.9197L8.61974 17.7675ZM20.9355 12.6414H22C22 12.6155 21.9991 12.5898 21.9973 12.5639L20.9355 12.6414ZM18.5664 7.16819C18.0468 6.88632 17.4026 7.08949 17.1275 7.62197C16.8526 8.15446 17.0507 8.81468 17.5703 9.09657L18.5664 7.16819ZM8.12112 14.7879C8.46489 15.2765 9.13028 15.387 9.60719 15.0346C10.0839 14.6823 10.1918 14.0004 9.84791 13.5117L8.12112 14.7879ZM11 10.0742L10.9987 8.98326H10.9915L11 10.0742ZM11.7422 11.3827C12.2404 11.7025 12.8973 11.5479 13.2094 11.0372C13.5215 10.5267 13.3706 9.85352 12.8723 9.53366L11.7422 11.3827ZM11 5.13308C8.0872 5.13308 5.39979 5.89342 3.40696 7.18054C1.42796 8.45875 0 10.3617 0 12.6414H2.12903C2.12903 11.3764 2.92521 10.0707 4.54213 9.02632C6.14524 7.99093 8.42557 7.3149 11 7.3149V5.13308ZM0 12.6414C0 15.25 1.85897 17.3561 4.31045 18.6247L5.27019 16.6771C3.17974 15.5953 2.12903 14.0852 2.12903 12.6414H0ZM12.0645 6.22399V1.09091H9.93548V6.22399H12.0645ZM11.0034 7.3149C12.235 7.31081 13.4616 7.47352 14.6516 7.79878L15.2003 5.69065C13.8291 5.31588 12.4157 5.1284 10.9966 5.13308L11.0034 7.3149ZM1.35287 4.14308L3.39532 8.36125L5.30248 7.39145L3.26003 3.17328L1.35287 4.14308ZM5.57322 23.6483L9.22808 19.5828L7.66225 18.1044L4.00742 22.1699L5.57322 23.6483ZM20.1523 4.20218L17.2852 7.39345L18.8516 8.87126L21.7187 5.67999L20.1523 4.20218ZM9.22808 19.5828L12.6345 15.7937L11.0687 14.3153L7.66225 18.1044L9.22808 19.5828ZM12.6355 15.7926L14.1755 14.0747L12.6086 12.5977L11.0677 14.3165L12.6355 15.7926ZM14.1755 14.0747L18.8516 8.87126L17.2852 7.39345L12.6086 12.5977L14.1755 14.0747ZM8.27058 19.9197C9.17286 20.0736 10.0861 20.1505 11.0007 20.1498L11 17.968C10.2027 17.9686 9.40621 17.9015 8.61974 17.7675L8.27058 19.9197ZM11.0007 20.1498C13.9135 20.1498 16.6002 19.3895 18.593 18.1024C20.572 16.8241 22 14.9211 22 12.6414H19.871C19.871 13.9065 19.0749 15.2122 17.4579 16.2566C15.8548 17.2919 13.5744 17.968 11 17.968L11.0007 20.1498ZM21.9973 12.5639C21.8386 10.2793 20.5418 8.2398 18.5664 7.16819L17.5703 9.09657C18.8964 9.81599 19.7671 11.1851 19.8737 12.719L21.9973 12.5639ZM9.84791 13.5117C9.53196 13.0627 9.48682 12.4702 9.7311 11.9764L7.832 10.9901C7.22787 12.2118 7.33937 13.6769 8.12112 14.7879L9.84791 13.5117ZM9.7311 11.9764C9.97537 11.4825 10.4682 11.1694 11.0085 11.1651L10.9915 8.98326C9.65502 8.99417 8.43622 9.76842 7.832 10.9901L9.7311 11.9764ZM11.0013 11.1651C11.2633 11.1648 11.5201 11.2401 11.7422 11.3827L12.8723 9.53366C12.3108 9.17323 11.6613 8.98239 10.9987 8.98326L11.0013 11.1651Z" fill="white"/>
</svg>
