<svg width="70" height="72" viewBox="0 0 70 72" fill="none" xmlns="http://www.w3.org/2000/svg">
<mask id="path-1-outside-1_242_198" maskUnits="userSpaceOnUse" x="12" y="15.4187" width="14" height="11" fill="black">
<rect fill="white" x="12" y="15.4187" width="14" height="11"/>
<path d="M15.8622 25.4187L13.277 15.9642H14.4403L16.4162 23.6644H16.5085L18.5213 15.9642H19.8139L21.8267 23.6644H21.919L23.8949 15.9642H25.0582L22.473 25.4187H21.2912L19.2045 17.8846H19.1307L17.044 25.4187H15.8622Z"/>
</mask>
<path d="M15.8622 25.4187L13.277 15.9642H14.4403L16.4162 23.6644H16.5085L18.5213 15.9642H19.8139L21.8267 23.6644H21.919L23.8949 15.9642H25.0582L22.473 25.4187H21.2912L19.2045 17.8846H19.1307L17.044 25.4187H15.8622Z" fill="black"/>
<path d="M15.8622 25.4187L15.3799 25.5506L15.4806 25.9187H15.8622V25.4187ZM13.277 15.9642V15.4642H12.6219L12.7947 16.096L13.277 15.9642ZM14.4403 15.9642L14.9247 15.8399L14.8282 15.4642H14.4403V15.9642ZM16.4162 23.6644L15.9319 23.7887L16.0283 24.1644H16.4162V23.6644ZM16.5085 23.6644V24.1644H16.8946L16.9923 23.7909L16.5085 23.6644ZM18.5213 15.9642V15.4642H18.1352L18.0376 15.8377L18.5213 15.9642ZM19.8139 15.9642L20.2977 15.8377L20.2 15.4642H19.8139V15.9642ZM21.8267 23.6644L21.343 23.7909L21.4406 24.1644H21.8267V23.6644ZM21.919 23.6644V24.1644H22.3069L22.4033 23.7887L21.919 23.6644ZM23.8949 15.9642V15.4642H23.507L23.4106 15.8399L23.8949 15.9642ZM25.0582 15.9642L25.5405 16.096L25.7133 15.4642H25.0582V15.9642ZM22.473 25.4187V25.9187H22.8546L22.9553 25.5506L22.473 25.4187ZM21.2912 25.4187L20.8093 25.5522L20.9109 25.9187H21.2912V25.4187ZM19.2045 17.8846L19.6864 17.7512L19.5849 17.3846H19.2045V17.8846ZM19.1307 17.8846V17.3846H18.7503L18.6488 17.7512L19.1307 17.8846ZM17.044 25.4187V25.9187H17.4244L17.5259 25.5522L17.044 25.4187ZM16.3445 25.2868L13.7593 15.8323L12.7947 16.096L15.3799 25.5506L16.3445 25.2868ZM13.277 16.4642H14.4403V15.4642H13.277V16.4642ZM13.956 16.0884L15.9319 23.7887L16.9005 23.5402L14.9247 15.8399L13.956 16.0884ZM16.4162 24.1644H16.5085V23.1644H16.4162V24.1644ZM16.9923 23.7909L19.0051 16.0906L18.0376 15.8377L16.0248 23.538L16.9923 23.7909ZM18.5213 16.4642H19.8139V15.4642H18.5213V16.4642ZM19.3302 16.0906L21.343 23.7909L22.3105 23.538L20.2977 15.8377L19.3302 16.0906ZM21.8267 24.1644H21.919V23.1644H21.8267V24.1644ZM22.4033 23.7887L24.3792 16.0884L23.4106 15.8399L21.4347 23.5402L22.4033 23.7887ZM23.8949 16.4642H25.0582V15.4642H23.8949V16.4642ZM24.5759 15.8323L21.9907 25.2868L22.9553 25.5506L25.5405 16.096L24.5759 15.8323ZM22.473 24.9187H21.2912V25.9187H22.473V24.9187ZM21.7731 25.2852L19.6864 17.7512L18.7227 18.0181L20.8093 25.5522L21.7731 25.2852ZM19.2045 17.3846H19.1307V18.3846H19.2045V17.3846ZM18.6488 17.7512L16.5622 25.2852L17.5259 25.5522L19.6125 18.0181L18.6488 17.7512ZM17.044 24.9187H15.8622V25.9187H17.044V24.9187Z" fill="black" mask="url(#path-1-outside-1_242_198)"/>
<mask id="path-3-outside-2_242_198" maskUnits="userSpaceOnUse" x="26" y="3" width="11" height="11" fill="black">
<rect fill="white" x="26" y="3" width="11" height="11"/>
<path d="M28.5327 13H27.3324L30.804 3.54545H31.9858L35.4574 13H34.2571L31.4318 5.04119H31.358L28.5327 13ZM28.9759 9.30682H33.8139V10.3224H28.9759V9.30682Z"/>
</mask>
<path d="M28.5327 13H27.3324L30.804 3.54545H31.9858L35.4574 13H34.2571L31.4318 5.04119H31.358L28.5327 13ZM28.9759 9.30682H33.8139V10.3224H28.9759V9.30682Z" fill="black"/>
<path d="M28.5327 13V13.5H28.8857L29.0039 13.1673L28.5327 13ZM27.3324 13L26.863 12.8277L26.6162 13.5H27.3324V13ZM30.804 3.54545V3.04545H30.4549L30.3346 3.37311L30.804 3.54545ZM31.9858 3.54545L32.4552 3.37311L32.3348 3.04545H31.9858V3.54545ZM35.4574 13V13.5H36.1736L35.9267 12.8277L35.4574 13ZM34.2571 13L33.7859 13.1673L33.904 13.5H34.2571V13ZM31.4318 5.04119L31.903 4.87393L31.7849 4.54119H31.4318V5.04119ZM31.358 5.04119V4.54119H31.0049L30.8868 4.87393L31.358 5.04119ZM28.9759 9.30682V8.80682H28.4759V9.30682H28.9759ZM33.8139 9.30682H34.3139V8.80682H33.8139V9.30682ZM33.8139 10.3224V10.8224H34.3139V10.3224H33.8139ZM28.9759 10.3224H28.4759V10.8224H28.9759V10.3224ZM28.5327 12.5H27.3324V13.5H28.5327V12.5ZM27.8017 13.1723L31.2733 3.7178L30.3346 3.37311L26.863 12.8277L27.8017 13.1723ZM30.804 4.04545H31.9858V3.04545H30.804V4.04545ZM31.5164 3.7178L34.988 13.1723L35.9267 12.8277L32.4552 3.37311L31.5164 3.7178ZM35.4574 12.5H34.2571V13.5H35.4574V12.5ZM34.7283 12.8327L31.903 4.87393L30.9606 5.20846L33.7859 13.1673L34.7283 12.8327ZM31.4318 4.54119H31.358V5.54119H31.4318V4.54119ZM30.8868 4.87393L28.0615 12.8327L29.0039 13.1673L31.8291 5.20846L30.8868 4.87393ZM28.9759 9.80682H33.8139V8.80682H28.9759V9.80682ZM33.3139 9.30682V10.3224H34.3139V9.30682H33.3139ZM33.8139 9.82244H28.9759V10.8224H33.8139V9.82244ZM29.4759 10.3224V9.30682H28.4759V10.3224H29.4759Z" fill="black" mask="url(#path-3-outside-2_242_198)"/>
<mask id="path-5-outside-3_242_198" maskUnits="userSpaceOnUse" x="39" y="6.54822" width="10" height="11" fill="black">
<rect fill="white" x="39" y="6.54822" width="10" height="11"/>
<path d="M47.642 7.09367V16.5482H46.5341L41.3821 9.12492H41.2898V16.5482H40.1449V7.09367H41.2528L46.4233 14.5354H46.5156V7.09367H47.642Z"/>
</mask>
<path d="M47.642 7.09367V16.5482H46.5341L41.3821 9.12492H41.2898V16.5482H40.1449V7.09367H41.2528L46.4233 14.5354H46.5156V7.09367H47.642Z" fill="black"/>
<path d="M47.642 7.09367H48.142V6.59367H47.642V7.09367ZM47.642 16.5482V17.0482H48.142V16.5482H47.642ZM46.5341 16.5482L46.1233 16.8333L46.2725 17.0482H46.5341V16.5482ZM41.3821 9.12492L41.7929 8.83984L41.6437 8.62492H41.3821V9.12492ZM41.2898 9.12492V8.62492H40.7898V9.12492H41.2898ZM41.2898 16.5482V17.0482H41.7898V16.5482H41.2898ZM40.1449 16.5482H39.6449V17.0482H40.1449V16.5482ZM40.1449 7.09367V6.59367H39.6449V7.09367H40.1449ZM41.2528 7.09367L41.6635 6.80838L41.5143 6.59367H41.2528V7.09367ZM46.4233 14.5354L46.0127 14.8207L46.1619 15.0354H46.4233V14.5354ZM46.5156 14.5354V15.0354H47.0156V14.5354H46.5156ZM46.5156 7.09367V6.59367H46.0156V7.09367H46.5156ZM47.142 7.09367V16.5482H48.142V7.09367H47.142ZM47.642 16.0482H46.5341V17.0482H47.642V16.0482ZM46.9449 16.2631L41.7929 8.83984L40.9713 9.41001L46.1233 16.8333L46.9449 16.2631ZM41.3821 8.62492H41.2898V9.62492H41.3821V8.62492ZM40.7898 9.12492V16.5482H41.7898V9.12492H40.7898ZM41.2898 16.0482H40.1449V17.0482H41.2898V16.0482ZM40.6449 16.5482V7.09367H39.6449V16.5482H40.6449ZM40.1449 7.59367H41.2528V6.59367H40.1449V7.59367ZM40.8422 7.37897L46.0127 14.8207L46.8339 14.2501L41.6635 6.80838L40.8422 7.37897ZM46.4233 15.0354H46.5156V14.0354H46.4233V15.0354ZM47.0156 14.5354V7.09367H46.0156V14.5354H47.0156ZM46.5156 7.59367H47.642V6.59367H46.5156V7.59367Z" fill="black" mask="url(#path-5-outside-3_242_198)"/>
<mask id="path-7-outside-4_242_198" maskUnits="userSpaceOnUse" x="51" y="17.1927" width="9" height="11" fill="black">
<rect fill="white" x="51" y="17.1927" width="9" height="11"/>
<path d="M51.6278 18.7538V17.7382H58.7188V18.7538H55.7457V27.1927H54.6009V18.7538H51.6278Z"/>
</mask>
<path d="M51.6278 18.7538V17.7382H58.7188V18.7538H55.7457V27.1927H54.6009V18.7538H51.6278Z" fill="black"/>
<path d="M51.6278 18.7538H51.1278V19.2538H51.6278V18.7538ZM51.6278 17.7382V17.2382H51.1278V17.7382H51.6278ZM58.7188 17.7382H59.2188V17.2382H58.7188V17.7382ZM58.7188 18.7538V19.2538H59.2188V18.7538H58.7188ZM55.7457 18.7538V18.2538H55.2457V18.7538H55.7457ZM55.7457 27.1927V27.6927H56.2457V27.1927H55.7457ZM54.6009 27.1927H54.1009V27.6927H54.6009V27.1927ZM54.6009 18.7538H55.1009V18.2538H54.6009V18.7538ZM52.1278 18.7538V17.7382H51.1278V18.7538H52.1278ZM51.6278 18.2382H58.7188V17.2382H51.6278V18.2382ZM58.2188 17.7382V18.7538H59.2188V17.7382H58.2188ZM58.7188 18.2538H55.7457V19.2538H58.7188V18.2538ZM55.2457 18.7538V27.1927H56.2457V18.7538H55.2457ZM55.7457 26.6927H54.6009V27.6927H55.7457V26.6927ZM55.1009 27.1927V18.7538H54.1009V27.1927H55.1009ZM54.6009 18.2538H51.6278V19.2538H54.6009V18.2538Z" fill="black" mask="url(#path-7-outside-4_242_198)"/>
<mask id="path-9-outside-5_242_198" maskUnits="userSpaceOnUse" x="51" y="29.6115" width="8" height="11" fill="black">
<rect fill="white" x="51" y="29.6115" width="8" height="11"/>
<path d="M52.1449 39.6115V30.1569H57.8509V31.1725H53.2898V34.3671H57.5554V35.3828H53.2898V38.5958H57.9247V39.6115H52.1449Z"/>
</mask>
<path d="M52.1449 39.6115V30.1569H57.8509V31.1725H53.2898V34.3671H57.5554V35.3828H53.2898V38.5958H57.9247V39.6115H52.1449Z" fill="black"/>
<path d="M52.1449 39.6115H51.6449V40.1115H52.1449V39.6115ZM52.1449 30.1569V29.6569H51.6449V30.1569H52.1449ZM57.8509 30.1569H58.3509V29.6569H57.8509V30.1569ZM57.8509 31.1725V31.6725H58.3509V31.1725H57.8509ZM53.2898 31.1725V30.6725H52.7898V31.1725H53.2898ZM53.2898 34.3671H52.7898V34.8671H53.2898V34.3671ZM57.5554 34.3671H58.0554V33.8671H57.5554V34.3671ZM57.5554 35.3828V35.8828H58.0554V35.3828H57.5554ZM53.2898 35.3828V34.8828H52.7898V35.3828H53.2898ZM53.2898 38.5958H52.7898V39.0958H53.2898V38.5958ZM57.9247 38.5958H58.4247V38.0958H57.9247V38.5958ZM57.9247 39.6115V40.1115H58.4247V39.6115H57.9247ZM52.6449 39.6115V30.1569H51.6449V39.6115H52.6449ZM52.1449 30.6569H57.8509V29.6569H52.1449V30.6569ZM57.3509 30.1569V31.1725H58.3509V30.1569H57.3509ZM57.8509 30.6725H53.2898V31.6725H57.8509V30.6725ZM52.7898 31.1725V34.3671H53.7898V31.1725H52.7898ZM53.2898 34.8671H57.5554V33.8671H53.2898V34.8671ZM57.0554 34.3671V35.3828H58.0554V34.3671H57.0554ZM57.5554 34.8828H53.2898V35.8828H57.5554V34.8828ZM52.7898 35.3828V38.5958H53.7898V35.3828H52.7898ZM53.2898 39.0958H57.9247V38.0958H53.2898V39.0958ZM57.4247 38.5958V39.6115H58.4247V38.5958H57.4247ZM57.9247 39.1115H52.1449V40.1115H57.9247V39.1115Z" fill="black" mask="url(#path-9-outside-5_242_198)"/>
<mask id="path-11-outside-6_242_198" maskUnits="userSpaceOnUse" x="60" y="38.4819" width="10" height="11" fill="black">
<rect fill="white" x="60" y="38.4819" width="10" height="11"/>
<path d="M64.0625 48.4819H61.1449V39.0274H64.1918C65.1089 39.0274 65.8937 39.2167 66.5462 39.5952C67.1986 39.9707 67.6987 40.5108 68.0465 41.2156C68.3943 41.9173 68.5682 42.7575 68.5682 43.7362C68.5682 44.721 68.3928 45.5689 68.0419 46.2799C67.6911 46.9877 67.1802 47.5325 66.5092 47.9141C65.8383 48.2927 65.0227 48.4819 64.0625 48.4819ZM62.2898 47.4663H63.9886C64.7704 47.4663 65.4182 47.3155 65.9322 47.0139C66.4461 46.7123 66.8293 46.283 67.0817 45.7259C67.334 45.1688 67.4602 44.5056 67.4602 43.7362C67.4602 42.9729 67.3356 42.3159 67.0863 41.765C66.837 41.211 66.4646 40.7863 65.9691 40.4908C65.4736 40.1923 64.8565 40.043 64.1179 40.043H62.2898V47.4663Z"/>
</mask>
<path d="M64.0625 48.4819H61.1449V39.0274H64.1918C65.1089 39.0274 65.8937 39.2167 66.5462 39.5952C67.1986 39.9707 67.6987 40.5108 68.0465 41.2156C68.3943 41.9173 68.5682 42.7575 68.5682 43.7362C68.5682 44.721 68.3928 45.5689 68.0419 46.2799C67.6911 46.9877 67.1802 47.5325 66.5092 47.9141C65.8383 48.2927 65.0227 48.4819 64.0625 48.4819ZM62.2898 47.4663H63.9886C64.7704 47.4663 65.4182 47.3155 65.9322 47.0139C66.4461 46.7123 66.8293 46.283 67.0817 45.7259C67.334 45.1688 67.4602 44.5056 67.4602 43.7362C67.4602 42.9729 67.3356 42.3159 67.0863 41.765C66.837 41.211 66.4646 40.7863 65.9691 40.4908C65.4736 40.1923 64.8565 40.043 64.1179 40.043H62.2898V47.4663Z" fill="black"/>
<path d="M61.1449 48.4819H60.6449V48.9819H61.1449V48.4819ZM61.1449 39.0274V38.5274H60.6449V39.0274H61.1449ZM66.5462 39.5952L66.2952 40.0277L66.2968 40.0286L66.5462 39.5952ZM68.0465 41.2156L67.5981 41.4369L67.5985 41.4376L68.0465 41.2156ZM68.0419 46.2799L68.4899 46.5019L68.4903 46.5011L68.0419 46.2799ZM66.5092 47.9141L66.7549 48.3496L66.7564 48.3487L66.5092 47.9141ZM62.2898 47.4663H61.7898V47.9663H62.2898V47.4663ZM65.9322 47.0139L65.6791 46.5827L65.9322 47.0139ZM67.0863 41.765L66.6303 41.9701L66.6308 41.9711L67.0863 41.765ZM65.9691 40.4908L65.7111 40.9191L65.713 40.9203L65.9691 40.4908ZM62.2898 40.043V39.543H61.7898V40.043H62.2898ZM64.0625 47.9819H61.1449V48.9819H64.0625V47.9819ZM61.6449 48.4819V39.0274H60.6449V48.4819H61.6449ZM61.1449 39.5274H64.1918V38.5274H61.1449V39.5274ZM64.1918 39.5274C65.0397 39.5274 65.7339 39.702 66.2952 40.0277L66.7971 39.1627C66.0535 38.7313 65.1781 38.5274 64.1918 38.5274V39.5274ZM66.2968 40.0286C66.8594 40.3524 67.2922 40.8168 67.5981 41.4369L68.4949 40.9943C68.1053 40.2048 67.5378 39.589 66.7956 39.1618L66.2968 40.0286ZM67.5985 41.4376C67.9046 42.0553 68.0682 42.8158 68.0682 43.7362H69.0682C69.0682 42.6993 68.884 41.7793 68.4945 40.9936L67.5985 41.4376ZM68.0682 43.7362C68.0682 44.6625 67.9032 45.4311 67.5935 46.0586L68.4903 46.5011C68.8823 45.7068 69.0682 44.7796 69.0682 43.7362H68.0682ZM67.5939 46.0578C67.2862 46.6786 66.8442 47.1484 66.262 47.4795L66.7564 48.3487C67.5161 47.9166 68.0959 47.2968 68.4899 46.5019L67.5939 46.0578ZM66.2635 47.4786C65.6839 47.8057 64.9576 47.9819 64.0625 47.9819V48.9819C65.0879 48.9819 65.9927 48.7797 66.7549 48.3496L66.2635 47.4786ZM62.2898 47.9663H63.9886V46.9663H62.2898V47.9663ZM63.9886 47.9663C64.8323 47.9663 65.5742 47.8037 66.1852 47.4451L65.6791 46.5827C65.2622 46.8273 64.7084 46.9663 63.9886 46.9663V47.9663ZM66.1852 47.4451C66.7907 47.0898 67.2433 46.5807 67.5371 45.9322L66.6262 45.5196C66.4153 45.9852 66.1016 46.3348 65.6791 46.5827L66.1852 47.4451ZM67.5371 45.9322C67.8254 45.2959 67.9602 44.559 67.9602 43.7362H66.9602C66.9602 44.4522 66.8427 45.0418 66.6262 45.5196L67.5371 45.9322ZM67.9602 43.7362C67.9602 42.9199 67.827 42.1891 67.5418 41.5588L66.6308 41.9711C66.8441 42.4426 66.9602 43.026 66.9602 43.7362H67.9602ZM67.5423 41.5598C67.2533 40.9176 66.8135 40.4122 66.2252 40.0614L65.713 40.9203C66.1157 41.1603 66.4207 41.5044 66.6303 41.9701L67.5423 41.5598ZM66.2271 40.0625C65.6349 39.7057 64.9227 39.543 64.1179 39.543V40.543C64.7904 40.543 65.3123 40.6788 65.7111 40.9191L66.2271 40.0625ZM64.1179 39.543H62.2898V40.543H64.1179V39.543ZM61.7898 40.043V47.4663H62.7898V40.043H61.7898Z" fill="black" mask="url(#path-11-outside-6_242_198)"/>
<path d="M39.2005 61.1508H36.0048V56.4275C36.0048 55.6923 35.3688 55.0962 34.5846 55.0962H6.0364C5.25197 55.0962 4.61607 55.6923 4.61607 56.4275V61.1508H1.42034C0.635903 61.1508 0 61.7467 0 62.482V70.2037C0 70.939 0.635903 71.5352 1.42034 71.5352H39.2005C39.9848 71.5352 40.6209 70.9389 40.6209 70.2037V62.482C40.6209 61.7467 39.9848 61.1508 39.2005 61.1508Z" fill="black"/>
<path d="M59.168 53.9022L39.3248 35.3018L40.5799 34.1251L41.1314 34.6422C41.6862 35.1621 42.5855 35.162 43.1401 34.6422L48.0611 30.0295C48.6154 29.5096 48.6159 28.6666 48.0611 28.1467L37.1123 17.8837C36.5577 17.3637 35.6584 17.3639 35.1038 17.8837L30.1828 22.4965C29.6281 23.0163 29.6281 23.8594 30.1828 24.3792L30.7343 24.8962L24.2062 31.0153L23.6547 30.4983C23.1002 29.9784 22.2008 29.9784 21.6461 30.4983L16.7251 35.111C16.1704 35.6309 16.1704 36.4739 16.7251 36.9938L27.6738 47.2566C28.2285 47.7764 29.1279 47.7764 29.6824 47.2566L34.6035 42.6438C35.158 42.1238 35.158 41.281 34.6035 40.7611L34.052 40.2441L35.3071 39.0674L55.1506 57.6676C56.2599 58.7076 58.0583 58.7076 59.1676 57.6676C60.2773 56.6277 60.2773 54.9419 59.168 53.9022Z" fill="black"/>
</svg>
