<svg width="22" height="21" viewBox="0 0 22 21" fill="none" xmlns="http://www.w3.org/2000/svg">
<path fill-rule="evenodd" clip-rule="evenodd" d="M21 13.4699C21 17.0437 16.5229 19.9412 11 19.9412C5.47714 19.9412 1 17.0437 1 13.4699C1 9.896 5.47714 7 11 7C16.5229 7 21 9.896 21 13.4699Z" stroke="white" stroke-width="1.8" stroke-linecap="round" stroke-linejoin="round"/>
<path fill-rule="evenodd" clip-rule="evenodd" d="M13.9403 13.4691C13.9649 14.6639 13.264 15.7548 12.1673 16.2291C11.0703 16.7033 9.79558 16.4669 8.94182 15.6308C8.0881 14.7947 7.82519 13.5249 8.27663 12.4186C8.72805 11.312 9.80415 10.5887 10.9992 10.5885C11.7711 10.5805 12.5148 10.8795 13.0664 11.4196C13.618 11.9599 13.9323 12.6971 13.9403 13.4691Z" stroke="white" stroke-width="1.8" stroke-linecap="round" stroke-linejoin="round"/>
<path d="M11.1909 5.62037H10.8091V2.0702H11.1909V5.62037ZM19.341 4.55969L19.7028 4.75762L18.3867 7.52617L18.0249 7.32824L19.341 4.55969ZM2.65909 4.55967L3.97519 7.32822L3.61327 7.52619L2.29718 4.75764L2.65909 4.55967Z" fill="black" stroke="white" stroke-width="1.8"/>
</svg>
