<svg width="20" height="22" viewBox="0 0 20 22" fill="none" xmlns="http://www.w3.org/2000/svg">
<path d="M14.2939 13.2918H13.3905L13.0703 12.9656C14.191 11.5881 14.8656 9.79971 14.8656 7.85427C14.8656 3.5163 11.538 0 7.43282 0C3.32762 0 0 3.5163 0 7.85427C0 12.1922 3.32762 15.7085 7.43282 15.7085C9.27387 15.7085 10.9663 14.9956 12.2699 13.8114L12.5786 14.1498V15.1044L18.2962 21.134L20 19.3336L14.2939 13.2918ZM7.43282 13.2918C4.58548 13.2918 2.28702 10.8631 2.28702 7.85427C2.28702 4.84548 4.58548 2.4167 7.43282 2.4167C10.2802 2.4167 12.5786 4.84548 12.5786 7.85427C12.5786 10.8631 10.2802 13.2918 7.43282 13.2918Z" fill="black"/>
</svg>
